# xmcd CD database file
#
# Track frame offsets:
#	150
#	19073
#	46181
#	66269
#	90908
#	109632
#	129065
#	146491
#	167161
#
# Disc length: 2528 seconds
#
# Revision: 1
# Processed by: cddbd v1.5.2PL0 Copyright (c) Steve Scherf et al.
# Submitted via: CDex 1.51
#
DISCID=6809de09
DTITLE=The Mallet Band - Phone Call From Barcelona
DYEAR=2007
DGENRE=Jazz
TTITLE0=First There Is
TTITLE1=Perfect
TTITLE2=Phone Call from Barcelona
TTITLE3=Midnight Stew
TTITLE4=Don't Say a Word
TTITLE5=Free It Up
TTITLE6=Leave it to Me
TTITLE7=Two Sisters
TTITLE8=We'll Look Into It
EXTD=YEAR: 2007
EXTT0=
EXTT1=
EXTT2=
EXTT3=
EXTT4=
EXTT5=
EXTT6=
EXTT7=
EXTT8=
PLAYORDER=
